<?xml version="1.0" encoding="UTF-8"?><svg id="a" xmlns="http://www.w3.org/2000/svg" width="55.89133mm" height="23.18629mm" viewBox="0 0 158.43213 65.72492"><rect x="30.55845" y="37.69205" width="109.72671" height="9.12189" fill="#5e27dd"/><path d="m74.86419,40.40114c-.10449-.09375-.15625-.22168-.15625-.38574,0-.16309.05273-.29102.16016-.38477.10742-.09277.24805-.13965.41992-.13965.17773,0,.32227.04688.43359.13965.11328.09375.16797.22168.16797.38477,0,.16406-.05469.29199-.16797.38574-.11133.09277-.25586.13965-.43359.13965s-.31836-.04688-.42383-.13965Z" fill="#fff"/><path d="m76.4638,39.63063c.10742-.09277.25-.13965.42773-.13965s.32031.04688.42969.13965c.11035.09375.16504.22168.16504.38477,0,.16406-.05469.29199-.16504.38574-.10938.09277-.25195.13965-.42969.13965s-.32031-.04688-.42773-.13965c-.10742-.09375-.16016-.22168-.16016-.38574,0-.16309.05273-.29102.16016-.38477Z" fill="#fff"/><polygon points="111.02384 22.7144 107.11075 22.7144 103.51993 26.36186 103.51993 18.38628 100.28848 18.38628 100.28848 32.27788 103.51993 32.27788 103.51993 28.32768 107.11075 32.27788 111.02384 32.27788 106.41153 27.36382 111.02384 22.7144"/><path d="m48.85849,23.35216c-.6499-.35986-1.40991-.54004-2.27979-.54004-.86011,0-1.59009.18018-2.25.56006-.65015.37012-1.14014.8999-1.49023,1.6001-.33984.70996-.52002,1.5498-.52002,2.5498,0,.93018.16016,1.77002.48022,2.52002.32983.77002.81982,1.37012,1.47998,1.82007.67993.42993,1.5.65991,2.47998.65991,1.26001,0,2.19995-.31982,2.84985-.97998.51001-.53003.90015-1.15991,1.16016-1.90991l-.8501-.47998c-.19995.78003-.56006,1.37988-1.08008,1.84009-.53979.44971-1.23975.68994-2.09985.68994-1.13989,0-2.01001-.38013-2.58008-1.13013-.54004-.69995-.82007-1.59985-.84009-2.70996h7.61011v-.5c0-.93994-.17993-1.75-.54004-2.42993-.35986-.68994-.86987-1.2002-1.53003-1.56006Zm-5.54004,3.62988c.03027-.60986.17017-1.16992.41016-1.62988.28003-.56006.66992-.95996,1.16992-1.25.47998-.28003,1.03003-.41992,1.65015-.41992,1.03003,0,1.83984.31982,2.45996.92993.55005.59009.86987,1.38013.8999,2.36987h-6.59009Z"/><path d="m73.38498,19.52715c-1.06494-.34509-2.28003-.51007-3.6449-.51007h-1.83032v2.64001h1.83032c.95984,0,1.72485.07501,2.29468.22504.55518.14996,1.02026.50995,1.38025,1.09497.375.57001.55481,1.46997.55481,2.685,0,1.22998-.17981,2.12994-.53979,2.69995-.35999.58502-.82507.94501-1.37988,1.09509-.55518.13495-1.33521.2099-2.31006.2099h-1.85999v-5.3634h-3.04504v8.03345h4.90503c1.36487,0,2.57996-.16498,3.6449-.51001,1.04993-.34497,1.92004-1.005,2.60999-1.97992.67493-.99005,1.0199-2.38507,1.0199-4.18506,0-1.78503-.34497-3.17999-1.0199-4.15497-.68994-.99005-1.56006-1.65002-2.60999-1.97998Z"/><path d="m25.77353,23.48705c-.73499-.44995-1.57507-.67493-2.54993-.67493-.97522,0-1.81531.22498-2.54993.67493-.73535.43506-1.29016,1.03503-1.68018,1.78503-.375.73505-.56982,1.53003-.56982,2.40002,0,.85504.19482,1.64996.56982,2.39996.39001.73499.94482,1.33502,1.68018,1.78503.73462.43494,1.57471.65997,2.54993.65997.97485,0,1.81494-.22504,2.54993-.65997.73499-.45001,1.28979-1.05005,1.66479-1.78503.39038-.75.58521-1.54492.58521-2.39996,0-.87-.19482-1.66498-.58521-2.40002-.375-.75-.92981-1.34998-1.66479-1.78503Zm.79504,6.15009c-.28528.59991-.71997,1.09497-1.29016,1.46997-.58484.375-1.25977.57001-2.05481.57001s-1.48499-.19501-2.05518-.57001c-.56982-.375-1.00488-.87006-1.28979-1.46997-.28528-.61505-.43506-1.26007-.43506-1.96503,0-.70502.14978-1.36505.43506-1.96497.28491-.61505.71997-1.09509,1.28979-1.47009.57019-.375,1.26013-.55499,2.05518-.55499s1.46997.17999,2.05481.55499c.57019.375,1.00488.85504,1.29016,1.47009.28491.59991.43506,1.25995.43506,1.96497,0,.70496-.15015,1.34998-.43506,1.96503Z"/><path d="m38.04343,23.4121c-.67493-.40497-1.42493-.59998-2.26501-.59998-1.07996,0-1.97974.27002-2.72974.79498-.69031.495-1.17004,1.15503-1.46997,1.995v-2.60999h-1.02026v12.77997h1.02026v-6c.17981.51001.44971.94501.77966,1.33502.40503.44995.88513.80994,1.47034,1.04999.56982.23999,1.22974.35999,1.94971.35999.84009,0,1.59009-.19501,2.26501-.60004.66028-.40491,1.18506-.97491,1.56006-1.69489.39001-.73511.57019-1.59003.57019-2.55005s-.18018-1.815-.57019-2.54999c-.375-.73499-.89978-1.30499-1.56006-1.71002Zm.61487,6.44995c-.32959.60004-.76465,1.05005-1.31982,1.36505-.55518.30005-1.17004.45001-1.82996.45001-.67493,0-1.30481-.16498-1.89001-.46503-.59985-.315-1.06494-.76501-1.43994-1.36493-.35999-.61505-.54016-1.33502-.54016-2.17505,0-.85498.18018-1.57495.54016-2.17499.375-.61499.84009-1.06506,1.43994-1.36499.58521-.29999,1.21509-.45007,1.89001-.45007.65991,0,1.27478.13507,1.82996.43506.55518.28503.99023.73499,1.31982,1.33496.33032.60004.49512,1.35004.49512,2.22003,0,.86993-.16479,1.60504-.49512,2.18994Z"/><path d="m60.15341,23.2321c-.47974-.28503-1.06494-.41998-1.73987-.41998-1.06494,0-1.95007.27002-2.64001.82501-.62988.50995-1.06494,1.19995-1.29016,2.05499v-2.70001h-1.0199v9.34497h1.0199v-4.21497c0-.84003.15015-1.59003.43506-2.26501.28528-.67505.70496-1.20001,1.26013-1.59003.53979-.39001,1.17004-.58502,1.89001-.58502.86975,0,1.51501.21002,1.92004.66003.41968.43506.61487,1.15503.61487,2.14496v5.85004h1.03491v-5.89496c0-.76501-.11975-1.42505-.375-1.96503-.2699-.53998-.62988-.96002-1.10999-1.245Z"/><path d="m85.95517,23.18712c-.75-.375-1.66516-.57001-2.70007-.57001-.97522,0-1.82996.19501-2.57996.58496-.75.39001-1.33521.96002-1.77026,1.71002-.42004.73499-.62988,1.60498-.62988,2.60999,0,.97504.20984,1.84503.61487,2.59503.42004.76501,1.00525,1.34998,1.7699,1.77002.76538.41992,1.68018.62994,2.71509.62994,1.43994,0,2.59497-.315,3.45007-.96002.46509-.35999.84009-.77991,1.09497-1.25995l-2.36975-1.32001h-.07507c-.09009.435-.32996.78003-.70496,1.02002-.375.23993-.84009.35999-1.41028.35999-.68994,0-1.22974-.22498-1.61975-.66003-.33032-.375-.52515-.88495-.55518-1.51501h7.125v-.79492c0-1.005-.19482-1.85999-.59985-2.56506-.40503-.70496-.99023-1.25995-1.75488-1.63495Zm-4.81531,3.435c.03003-.33008.13513-.63.2699-.88507.18018-.32996.43506-.57001.75-.75.33032-.16498.70532-.25494,1.17041-.25494.67493,0,1.21472.19501,1.60474.57001.34497.33002.52515.76501.57019,1.32001h-4.36523Z"/><path d="m95.92856,26.81712l-2.20496-.55499c-.34497-.09003-.60022-.19501-.76501-.34509-.18018-.14996-.25488-.31494-.25488-.49493,0-.24005.10474-.42004.32959-.55499.22522-.12.57019-.17999,1.00525-.17999.58484,0,1.0199.10492,1.30481.32996.28528.22504.43506.57001.43506,1.02002h2.87988c0-1.10999-.41968-1.95001-1.22974-2.53503s-1.95007-.88495-3.40503-.88495c-.88513,0-1.63513.10504-2.26501.32996-.62988.21002-1.125.52509-1.45496.92999-.32996.40503-.49512.91498-.49512,1.51501,0,.75.22485,1.33502.68994,1.74005.4801.41998,1.03491.71997,1.66516.91498l2.90991.76501c.29993.09003.51013.20996.6449.34497.13513.12006.21021.28503.21021.48004,0,.28497-.1051.495-.32996.62994-.22522.13507-.60022.19501-1.125.19501-.70496,0-1.2301-.12-1.57507-.39001-.34497-.25494-.52515-.65997-.52515-1.19995h-2.86487c0,.79492.17981,1.46997.55481,2.01001.39038.53998.93018.94495,1.66516,1.22992.71997.27008,1.62012.40503,2.70007.40503.97485,0,1.78491-.10498,2.42981-.315.66028-.20996,1.14001-.53998,1.47034-.95996.32959-.43506.49475-.96002.49475-1.57507,0-.80994-.25488-1.42493-.78003-1.875-.51013-.43494-1.21472-.76489-2.11487-.97491Z"/><path d="m36.82315,39.74974c-.38281-.12598-.82324-.18848-1.32227-.18848h-1.75v4.93457h1.75c.49902,0,.93945-.06348,1.32227-.18945s.69727-.37012.94141-.73438c.24609-.36426.36816-.87988.36816-1.54688,0-.66309-.12207-1.17676-.36816-1.54004-.24414-.36426-.55859-.60938-.94141-.73535Zm.11621,3.34961c-.14746.23535-.33496.38574-.56348.45117s-.52051.09863-.875.09863h-.77734v-3.24121h.77734c.35449,0,.64648.03125.875.09473.22852.0625.41602.21191.56348.44727.14746.23633.21973.59473.21973,1.0752s-.07227.83887-.21973,1.07422Z" fill="#fff"/><path d="m43.13761,41.52806v2.96777h.93164v-2.70215h1.8125v-.81152h-2.18359c-.37402,0-.56055.18164-.56055.5459Z" fill="#fff"/><path d="m51.76846,41.75169l-1.49219-.37793c-.2002-.05078-.34375-.12109-.42969-.20996s-.12891-.19629-.12891-.32227c0-.37793.30078-.56641.90234-.56641.39648,0,.69043.07715.88184.23047.19141.1543.28711.39453.28711.72168h1.00098c0-.54688-.18652-.97559-.56055-1.28809-.37305-.3125-.91406-.46973-1.62305-.46973-.61133,0-1.08008.11914-1.4043.35742s-.48633.58301-.48633,1.03613c0,.67188.37109,1.10547,1.11328,1.30176l1.52539.39941c.20117.05078.35352.12695.45508.22754.10352.09961.1543.21973.1543.36035,0,.20996-.08398.36523-.25195.46484-.16797.10059-.43359.15137-.79785.15137-.49902,0-.86035-.09277-1.08105-.27734-.22266-.18359-.33301-.47949-.33301-.88477h-1.00098c0,.63867.19824,1.12891.5957,1.46973.39648.34082.99609.51074,1.79883.51074.7041,0,1.22461-.12793,1.56055-.38477s.50391-.62109.50391-1.0918c0-.70508-.39648-1.15723-1.18945-1.3584Z" fill="#fff"/><path d="m56.45401,41.12865c-.29102-.14453-.62109-.2168-.99023-.2168-.37305,0-.70703.07227-1.00098.2168s-.52441.35449-.68945.62988-.24902.59961-.24902.97363c0,.37793.08398.70605.24902.9834s.39551.48828.68945.63281c.29395.14551.62793.21777,1.00098.21777.36914,0,.69922-.07227.99023-.21777.29199-.14453.52148-.35547.68945-.63281s.25195-.60547.25195-.9834c0-.37402-.08398-.69824-.25195-.97363s-.39746-.48535-.68945-.62988Zm-.25781,2.34863c-.17969.18457-.42383.27637-.73242.27637-.31738,0-.56543-.0918-.74512-.27637s-.26953-.43262-.26953-.74512c0-.30859.08984-.55371.26953-.73535s.42773-.27344.74512-.27344c.30859,0,.55273.0918.73242.27344.17871.18164.26953.42676.26953.73535,0,.3125-.09082.56055-.26953.74512Z" fill="#fff"/><path d="m60.87491,42.35423c0,.4707-.0957.82227-.28711,1.05273-.19141.23145-.45996.34668-.80469.34668-.28418,0-.4873-.06934-.60547-.20996-.11914-.13965-.17871-.37793-.17871-.71387v-1.84766h-.93164v1.98047c0,.51367.12207.90918.36523,1.18652.24219.27832.58008.41699,1.01465.41699.37305,0,.68066-.08496.92383-.25586.24316-.16992.41113-.4043.50391-.70312v.88867h.9248v-3.51367h-.9248v1.37207Z" fill="#fff"/><polygon points="64.34757 44.20189 63.32511 40.98216 62.37979 40.98216 63.51456 44.49584 65.15909 44.49584 66.28018 40.98216 65.36221 40.98216 64.34757 44.20189" fill="#fff"/><path d="m71.07413,41.52806v2.96777h.93066v-2.70215h1.81348v-.81152h-2.18457c-.37305,0-.55957.18164-.55957.5459Z" fill="#fff"/><path d="m81.22354,40.91185c-.36816,0-.67383.08496-.91602.25586-.24316.16992-.41113.4043-.50391.70312v-.88867h-.9248v3.51367h.9248v-1.37207c0-.47168.09473-.82227.28613-1.05371.19141-.23047.45996-.34668.80566-.34668.2793,0,.47852.07031.59766.21094.11914.13965.17871.37793.17871.71387v1.84766h.93848v-1.98145c0-.5127-.12109-.9082-.36426-1.18652-.24316-.27734-.58301-.41602-1.02246-.41602Z" fill="#fff"/><path d="m91.11417,39.56127l-1.63086,4.93457h1.01562l.5459-1.67969h1.88965l.54688,1.67969h1.02832l-1.62402-4.93457h-1.77148Zm.21094,2.40723l.66406-2.05762.67285,2.05762h-1.33691Z" fill="#fff"/><path d="m95.11221,41.52806v2.96777h.93066v-2.70215h1.81348v-.81152h-2.18457c-.37402,0-.55957.18164-.55957.5459Z" fill="#fff"/><path d="m101.71573,41.15013c-.24414-.15918-.54199-.23828-.89258-.23828-.35938,0-.6543.07617-.88867.22754-.23242.15137-.4082.34863-.52441.5918v-2.37988h-.9248v5.14453h.9248v-.7627c.12598.25684.30371.45898.53516.6084s.52441.22461.87793.22461c.35059,0,.64844-.08008.89258-.23828.24609-.1582.42969-.37695.55371-.6543s.18555-.5918.18555-.94141c0-.3457-.06152-.65625-.18555-.93164s-.30762-.49219-.55371-.65039Zm-.46094,2.35156c-.18555.16797-.44336.25195-.77344.25195-.32715,0-.58594-.08496-.77734-.25488-.19141-.1709-.28711-.42578-.28711-.7666,0-.33203.0957-.58203.28711-.75293.19141-.16992.4502-.25586.77734-.25586.33008,0,.58789.08301.77344.24902.18359.16602.27539.41895.27539.75977,0,.34473-.0918.60156-.27539.76953Z" fill="#fff"/><path d="m108.63565,40.54076c.18652,0,.33691-.04785.45117-.14355s.17188-.22754.17188-.39551-.05859-.2998-.17578-.39551c-.11621-.0957-.26562-.14355-.44727-.14355s-.32812.04785-.4375.14355-.16406.22754-.16406.39551c0,.17285.05469.30566.16406.39941.10938.09277.25586.13965.4375.13965Z" fill="#fff"/><path d="m109.14639,41.48607c0-.33594-.1709-.50391-.51074-.50391h-1.14062v.81152h.79688v1.89062h-.97949v.81152h2.82129v-.81152h-.9873v-2.19824Z" fill="#fff"/><path d="m112.21964,41.79369h1.14062v-.81152h-1.14062v-1.03613l-.92383.28711v.74902h-.8125v.81152h.8125v2.14941c0,.36816.18359.55273.55273.55273h1.65234v-.81152l-1.28125.00684v-1.89746Z" fill="#fff"/><path d="m116.33487,42.49388l-.81836-.20996c-.14453-.03711-.25098-.08594-.31836-.14746-.06836-.06055-.10156-.13477-.10156-.22363,0-.09766.05078-.17773.1543-.23828.10156-.06055.24023-.09082.41211-.09082.23438,0,.41016.04883.5293.14746.11914.09766.17773.2373.17773.41992h.92383c0-.40137-.14453-.70801-.43359-.9209-.28906-.21191-.69043-.31836-1.20312-.31836-.4668,0-.83203.08789-1.09277.2627s-.3916.42285-.3916.74512c0,.2666.08203.47461.24805.62695.16602.15137.36719.2627.60547.33203l1.0293.28027c.13477.03711.23242.08398.29102.13965.05762.05664.08691.12891.08691.2168,0,.13086-.04883.22559-.14746.28418-.09766.05859-.24902.08691-.45508.08691-.56836,0-.85352-.22363-.85352-.67188h-.92383c0,.43848.15039.77344.45117,1.00488.30078.23047.73828.34668,1.3125.34668.50879,0,.89453-.08887,1.15527-.2666.26074-.17676.3916-.43359.3916-.76953,0-.28516-.0918-.50781-.27637-.66895s-.43457-.2832-.75293-.36719Z" fill="#fff"/><path d="m121.29581,41.15013c-.24609-.15918-.54297-.23828-.89258-.23828-.35547,0-.64844.07422-.87891.22363s-.40918.35254-.53516.60938v-.7627h-.92383v4.90625h.92383v-2.1416c.11621.24316.29102.43945.52539.5918.23242.15137.5293.22754.88867.22754.34961,0,.64648-.08008.89258-.23828.24414-.1582.42871-.37598.55273-.65137.12305-.27539.18555-.58496.18555-.93066,0-.34961-.0625-.66406-.18555-.94141-.12402-.27734-.30859-.49609-.55273-.6543Zm-.46289,2.35547c-.18359.16504-.44141.24805-.77344.24805-.32617,0-.58594-.08496-.77637-.25488-.19141-.1709-.28711-.42188-.28711-.75293,0-.34082.0957-.5957.28711-.7666.19043-.16992.4502-.25586.77637-.25586.32715,0,.58398.08594.77051.25586.18652.1709.28027.42578.28027.7666s-.09277.59375-.27734.75977Z" fill="#fff"/><path d="m124.51163,39.82689c0-.1543-.04199-.27148-.12598-.35352s-.20508-.12207-.36328-.12207h-1.23242v.80469h.79102v3.52832h-.97266v.81152h2.88281v-.81152h-.97949v-3.85742Z" fill="#fff"/><path d="m132.00089,41.79369h1.1416v-.81152h-1.1416v-1.03613l-.92383.28711v.74902h-.81152v.81152h.81152v2.14941c0,.36816.18457.55273.55371.55273h1.65137v-.81152l-1.28125.00684v-1.89746Z" fill="#fff"/><polygon points="137.15323 40.98216 133.8837 40.98216 133.8837 41.68138 136.85928 41.68138 133.8837 43.11693 133.8837 44.49584 137.15323 44.49584 137.15323 43.7888 134.17862 43.7888 137.15323 42.37474 137.15323 40.98216" fill="#fff"/><path d="m106.17893,41.37413c-.00012-.00012-.00018-.00024-.00031-.00037-.00421-.00403-.00958-.00653-.01379-.0105-.07623-.07086-.15814-.13513-.24835-.18945-.03436-.02081-.07477-.03412-.11108-.05237-.06494-.03259-.12793-.06769-.19922-.09247-.0459-.01599-.09845-.02368-.14697-.03638-.0697-.01831-.13684-.03986-.21185-.05133-.05005-.00763-.10675-.00714-.15924-.01178-.07904-.00696-.15521-.01764-.23956-.01764-.00098,0-.00177.00031-.00275.00031-.00146,0-.00262-.00031-.00409-.00031-.35059,0-.66016.07129-.93066.21387-.27148.1416-.48047.34863-.63086.61914-.14844.27051-.22363.59277-.22363.96582,0,.35938.07227.67871.21777.95898.14453.28027.35352.5.62891.6582.08936.05133.19366.08099.29443.11578.211.07599.43903.12811.70117.12811.52002,0,.93018-.13013,1.23975-.36987.16992-.14014.31006-.31006.40039-.5l-.02106-.0116c.06696-.13507.12579-.27478.15094-.43372h-.91699c-.04688.18652-.14551.33301-.29395.4375-.14703.10376-.33569.15521-.56396.15692-.27759-.0011-.48639-.08032-.64502-.2392-.15039-.17017-.24023-.38989-.26025-.67993h2.68018v-.27002c0-.55005-.16016-.97998-.47998-1.28003-.00299-.00293-.0069-.00482-.00995-.00769Zm-.68976.43713c.16113.1377.25098.33301.26953.58496h-1.76862c.021-.24677.1098-.43573.26862-.57446.16016-.13989.35986-.20996.62012-.20996.12219,0,.23413.01544.33606.04645.10303.0343.19458.0849.27429.15302Z" fill="#fff"/><path d="m86.40354,41.37413c-.00012-.00012-.00018-.00024-.00031-.00037-.00482-.00458-.01093-.00751-.01575-.01202-.07544-.06989-.15619-.13373-.2453-.18744-.04395-.02655-.09491-.04431-.14203-.06689-.05573-.02655-.10815-.05713-.16833-.07812-.05402-.0188-.11523-.02856-.17285-.04285-.06183-.01532-.1203-.03503-.18622-.0451-.05853-.00897-.12427-.00885-.1861-.01373-.07092-.00555-.13837-.01575-.2135-.01575-.00085,0-.00153.00024-.00232.00024-.00122,0-.00232-.00024-.00354-.00024-.35059,0-.66016.07129-.93164.21387-.27051.1416-.48047.34863-.62988.61914s-.22363.59277-.22363.96582c0,.35938.07227.67871.2168.95898s.35449.5.62988.6582c.0777.04462.16949.06848.25574.10065.2204.08557.46075.14325.73889.14325.52002,0,.93018-.13013,1.23975-.36987.16992-.14014.31006-.31006.40039-.5l-.02094-.01154c.06689-.13507.12567-.27484.15082-.43378h-.91602c-.04688.18652-.14551.33301-.29492.4375-.14606.10376-.33472.15521-.5639.15692-.27753-.0011-.48645-.08032-.64508-.2392-.15039-.17017-.24023-.38989-.26025-.67993h2.68018v-.27002c0-.55005-.16016-.97998-.47998-1.28003-.00299-.00293-.0069-.00482-.00995-.00769Zm-.68976.43713c.16211.1377.25195.33301.26953.58496h-1.76862c.021-.24677.1098-.43573.26862-.57446.16016-.13989.35986-.20996.62012-.20996.12244,0,.23462.01538.33667.04651.10297.0343.19446.08484.27368.15295Z" fill="#fff"/><path d="m68.49112,40.91185c-.34961,0-.65967.06982-.92969.21997-.27002.13989-.47998.34985-.62988.61987-.15039.27002-.22021.59009-.22021.95996,0,.36011.06982.68018.22021.96021.13965.28003.34961.5.62988.65991.27002.16016.59961.23999.97998.23999.52002,0,.93018-.13013,1.23975-.36987.16992-.14014.31006-.31006.40039-.5l-.78027-.43018c-.04004.18018-.14014.32007-.29004.43018-.1499.09985-.33984.1499-.56982.1499-.28027,0-.49023-.08008-.6499-.23999-.15039-.17017-.24023-.38989-.26025-.67993h2.68018v-.27002c0-.55005-.16016-.97998-.47998-1.28003-.32031-.31006-.77002-.46997-1.34033-.46997Zm-.85986,1.48999c.02002-.25.10986-.44019.27002-.58008s.35986-.20996.62012-.20996c.25,0,.45996.06006.62012.19995.15967.14014.25.33008.26953.59009h-1.77979Z" fill="#fff"/><path d="m40.54239,40.91185c-.34961,0-.65967.06982-.92969.21997-.27002.13989-.47998.34985-.62988.61987-.15039.27002-.22021.59009-.22021.95996,0,.36011.06982.68018.22021.96021.13965.28003.34961.5.62988.65991.27002.16016.59961.23999.97998.23999.52002,0,.93018-.13013,1.23975-.36987.16992-.14014.31006-.31006.40039-.5l-.78027-.43018c-.04004.18018-.14014.32007-.29004.43018-.1499.09985-.33984.1499-.56982.1499-.28027,0-.49023-.08008-.6499-.23999-.15039-.17017-.24023-.38989-.26025-.67993h2.68018v-.27002c0-.55005-.16016-.97998-.47998-1.28003-.32031-.31006-.77002-.46997-1.34033-.46997Zm-.85986,1.48999c.02002-.25.10986-.44019.27002-.58008s.35986-.20996.62012-.20996c.25,0,.45996.06006.62012.19995.15967.14014.25.33008.26953.59009h-1.77979Z" fill="#fff"/><path d="m129.46073,42.48937c0-.51093-.15546-.8996-.46088-1.17169-.30542-.26654-.71637-.4054-1.22723-.4054-.33868,0-.63306.0611-.88843.18329-.10553.04993-.20544.11108-.29431.18323-.18323.13879-.31097.30542-.38873.51086l.7774.43317c.02222-.18878.09442-.33319.21661-.42761.02216-.01666.04443-.03326.07214-.04999.12219-.07214.27765-.11102.47198-.11102.26654,0,.46649.05554.58862.17212.12775.11108.18884.29431.19989.54974l-1.21051.11664c-.46643.04999-.79962.16101-1.00507.33313-.19995.17773-.29987.4165-.29987.72192,0,.26099.08881.49976.26099.71631.17767.21661.50531.32208.97729.32208.79962,0,1.29944-.31653,1.50488-.94952v.39423c0,.15546.03888.27765.12769.36096.08331.08331.20544.12219.36096.12219h.72742v-.81079h-.51086v-1.19385Zm-1.23273,1.06616c-.19989.17767-.45538.26654-.77191.26654-.16101,0-.29425-.03333-.38867-.10553-.09998-.0722-.1499-.18323-.1499-.32758,0-.12219.04443-.21661.13324-.2666.08881-.05548.23322-.09436.43317-.11658l1.04388-.13324c0,.27765-.09991.51086-.2998.68298Z" fill="#fff"/><path d="m77.75955,42.48937c0-.51093-.15546-.8996-.46088-1.17169-.30542-.26654-.71637-.4054-1.22723-.4054-.33868,0-.63306.0611-.88843.18329-.10553.04993-.20544.11108-.29431.18323-.18323.13879-.31097.30542-.38873.51086l.7774.43317c.02222-.18878.09442-.33319.21661-.42761.02216-.01666.04443-.03326.07214-.04999.12219-.07214.27765-.11102.47198-.11102.26654,0,.46649.05554.58862.17212.12775.11108.18884.29431.19989.54974l-1.21051.11664c-.46643.04999-.79962.16101-1.00507.33313-.19995.17773-.29987.4165-.29987.72192,0,.26099.08881.49976.26099.71631.17767.21661.50531.32208.97729.32208.79962,0,1.29944-.31653,1.50488-.94952v.39423c0,.15546.03888.27765.12769.36096.08331.08331.20544.12219.36096.12219h.72742v-.81079h-.51086v-1.19385Zm-1.23273,1.06616c-.19989.17767-.45538.26654-.77191.26654-.16101,0-.29425-.03333-.38867-.10553-.09998-.0722-.1499-.18323-.1499-.32758,0-.12219.04443-.21661.13324-.2666.08881-.05548.23322-.09436.43317-.11658l1.04388-.13324c0,.27765-.09991.51086-.2998.68298Z" fill="#fff"/></svg>